<svg width="177" height="50" fill="none" xmlns="http://www.w3.org/2000/svg"><path d="M3.9 26.8h6.5v-3.6H4v-3.7h8V16H0v17.6h3.9v-6.8zM13.2 27v6.6h3.6V27c0-2 1.6-3.7 3.6-3.7V20H20c-4 0-6.8 3.1-6.8 7zM28.6 20c-4 0-7.3 3.1-7.3 7s3.2 7 7.3 7c3.2 0 5.9-2 6.8-4.7h-4a3.6 3.6 0 01-6.3-1h10.6l.1-1.3c0-3.9-3.2-7-7.2-7zM25 25.7a3.7 3.7 0 013.5-2.4c1.5 0 2.8 1 3.4 2.4H25zM43.7 25.8c-1.4-.1-3-.8-3-1.5 0-1 .8-1.2 1.6-1.2s1.5.3 1.5 1.4h3.7c0-2.8-2.4-4.5-5.2-4.5-2.8 0-5.2 1.7-5.2 4.4 0 2 2.5 3.6 5 4 1 0 1.9.6 1.9 1.2 0 .9-1 1.3-1.7 1.3-.8 0-1.7-.3-1.7-1.4H37c0 2.8 2.5 4.5 5.3 4.5s5.3-1.7 5.3-4.5c0-2.2-2-3.4-3.9-3.7zM56.3 20c-1.2 0-2.3.5-3.2 1.2V16h-3.6v17.6h3.6V27c0-2 1.2-3.7 3.2-3.7s3.1 1.7 3.1 3.7v6.6h3.7V27c0-3.9-2.8-7-6.8-7zM72 20c-4 0-6.8 3.1-6.8 7v6.6H69V27c0-2 1.1-3.7 3.1-3.7s3.2 1.7 3.2 3.7v6.6h3.6V27c0-3.9-2.8-7-6.8-7zM87.6 20c-4 0-7.2 3.1-7.2 7s3.2 7 7.2 7c3.2 0 6-2 7-4.7h-4.1a3.6 3.6 0 01-6.3-1h10.6V27c0-3.9-3.1-7-7.2-7zm-3.4 5.7a3.7 3.7 0 013.4-2.4c1.6 0 3 1 3.4 2.4h-6.8zM102.8 25.8c-1.4-.1-3-.8-3-1.5 0-1 .8-1.2 1.6-1.2s1.5.3 1.5 1.4h3.6c0-2.8-2.3-4.5-5.1-4.5s-5.2 1.7-5.2 4.4c0 2 2.4 3.6 5 4 1 0 1.9.6 1.9 1.2 0 .9-1 1.3-1.7 1.3-.8 0-1.7-.3-1.7-1.4H96c0 2.8 2.6 4.5 5.4 4.5 2.8 0 5.3-1.7 5.3-4.5 0-2.2-2-3.4-3.9-3.7zM115.1 20c-4 0-7.2 3.1-7.2 7s3.2 7 7.2 7c3.2 0 6-2 6.9-4.7h-4a3.6 3.6 0 01-6.3-1h10.6V27c0-3.9-3.2-7-7.2-7zm-3.4 5.7a3.7 3.7 0 013.4-2.4c1.6 0 2.9 1 3.4 2.4h-6.8zM130.6 23.3c1.4 0 2.6.8 3.2 2h3.8c-.8-3-3.6-5.3-7-5.3-4 0-7.3 3.1-7.3 7s3.3 7 7.3 7c3.4 0 6.2-2.2 7-5.2h-4a3.5 3.5 0 01-3 1.9c-2 0-3.6-1.7-3.6-3.7s1.6-3.7 3.6-3.7zM153 27c0-3.9-3.3-7-7.3-7s-7.2 3.1-7.2 7 3.2 7 7.2 7 7.2-3.1 7.2-7zm-3.7 0c0 2-1.6 3.7-3.6 3.7s-3.6-1.7-3.6-3.7 1.6-3.7 3.6-3.7 3.6 1.7 3.6 3.7zM170.5 20c-2 0-3.6.9-4.8 2.2A6.1 6.1 0 00161 20c-4 0-6.5 3.1-6.5 7v6.6h3.6V27c0-2 1-3.7 3-3.7s2.8 1.7 2.8 3.7v6.6h3.7V27c0-2 .9-3.7 2.9-3.7s2.9 1.7 2.9 3.7v6.6h3.6V27c0-3.9-2.5-7-6.5-7z" fill="#151515"/></svg>